<svg width="119" height="58" viewBox="0 0 119 58" fill="none" xmlns="http://www.w3.org/2000/svg">
<g filter="url(#filter0_b_243_113)">
<path fill-rule="evenodd" clip-rule="evenodd" d="M2.98897 17.9908C16.4944 27.9083 27.2231 41.3855 33.7924 57.0396H115.655V56.9234C115.72 57.0003 115.785 57.0396 115.852 57.0396C117.047 57.0396 118.016 44.2797 118.016 28.5396C118.016 12.7995 117.047 0.0396283 115.852 0.0396283C115.785 0.0396283 115.72 0.0789085 115.655 0.155798V0.0396283L33.0159 0.0396118L19.7001 11.0396H0.856613C1.74886 13.2732 2.46535 15.5959 2.98897 17.9908Z" fill="#50A8BB" fill-opacity="0.3"/>
</g>
<path fill-rule="evenodd" clip-rule="evenodd" d="M33.7925 57.0396H115.016V56.0396L33.3659 56.0396C33.51 56.3719 33.6522 56.7053 33.7925 57.0396Z" fill="#98F3FF" fill-opacity="0.55"/>
<path fill-rule="evenodd" clip-rule="evenodd" d="M20.0392 12.0396L33.3282 1.0396L115.016 1.03961V0.0396118H33.0159L33.0158 1.0396V0L19.6791 11.0396H13.0159V12.0396H18.471H20.0392Z" fill="#98F3FF" fill-opacity="0.55"/>
<defs>
<filter id="filter0_b_243_113" x="-18.1434" y="-18.9604" width="155.159" height="95" filterUnits="userSpaceOnUse" color-interpolation-filters="sRGB">
<feFlood flood-opacity="0" result="BackgroundImageFix"/>
<feGaussianBlur in="BackgroundImage" stdDeviation="9.5"/>
<feComposite in2="SourceAlpha" operator="in" result="effect1_backgroundBlur_243_113"/>
<feBlend mode="normal" in="SourceGraphic" in2="effect1_backgroundBlur_243_113" result="shape"/>
</filter>
</defs>
</svg>
