<svg width="87" height="87" viewBox="0 0 87 87" fill="none" xmlns="http://www.w3.org/2000/svg">
<g filter="url(#filter0_di_459_93)">
<path fill-rule="evenodd" clip-rule="evenodd" d="M43.4999 79C24.0212 79 8.23067 63.1061 8.23067 43.5C8.23067 23.8939 24.0212 8 43.4999 8C62.9785 8 78.769 23.8939 78.769 43.5C78.769 63.1061 62.9785 79 43.4999 79ZM19.4842 43.5C19.4842 56.9022 30.2748 67.697 43.4998 67.697C56.7249 67.697 67.5155 56.9022 67.5155 43.5C67.5155 30.0979 56.7249 19.303 43.4998 19.303C30.2748 19.303 19.4842 30.0979 19.4842 43.5ZM12.4842 43.5C12.4842 60.7296 26.3704 74.697 43.4998 74.697C60.6293 74.697 74.5155 60.7296 74.5155 43.5C74.5155 26.2704 60.6293 12.303 43.4998 12.303C26.3704 12.303 12.4842 26.2704 12.4842 43.5Z" fill="#263F42"/>
</g>
<g filter="url(#filter1_b_459_93)">
<path d="M17.0804 43.5C17.0804 58.0578 28.9017 69.8721 43.4999 69.8721C58.0981 69.8721 69.9194 58.0578 69.9194 43.5C69.9194 28.9422 58.0981 17.1279 43.4999 17.1279C28.9017 17.1279 17.0804 28.9422 17.0804 43.5Z" stroke="#431A1A" stroke-opacity="0.24" stroke-width="10"/>
</g>
<g filter="url(#filter2_d_459_93)">
<circle r="33.5" transform="matrix(-1 0 0 1 43.5 43.5)" stroke="#FF0000" stroke-width="4"/>
</g>
<rect x="54.5854" y="29" width="3.01498" height="34.9738" rx="1.50749" transform="rotate(40 54.5854 29)" fill="white"/>
<rect x="56.895" y="55.7915" width="3.01498" height="34.9738" rx="1.50749" transform="rotate(140 56.895 55.7915)" fill="white"/>
<defs>
<filter id="filter0_di_459_93" x="0.230713" y="0" width="86.5383" height="87" filterUnits="userSpaceOnUse" color-interpolation-filters="sRGB">
<feFlood flood-opacity="0" result="BackgroundImageFix"/>
<feColorMatrix in="SourceAlpha" type="matrix" values="0 0 0 0 0 0 0 0 0 0 0 0 0 0 0 0 0 0 127 0" result="hardAlpha"/>
<feOffset/>
<feGaussianBlur stdDeviation="4"/>
<feColorMatrix type="matrix" values="0 0 0 0 0.983333 0 0 0 0 0.0778472 0 0 0 0 0.0778472 0 0 0 1 0"/>
<feBlend mode="normal" in2="BackgroundImageFix" result="effect1_dropShadow_459_93"/>
<feBlend mode="normal" in="SourceGraphic" in2="effect1_dropShadow_459_93" result="shape"/>
<feColorMatrix in="SourceAlpha" type="matrix" values="0 0 0 0 0 0 0 0 0 0 0 0 0 0 0 0 0 0 127 0" result="hardAlpha"/>
<feOffset/>
<feGaussianBlur stdDeviation="12"/>
<feComposite in2="hardAlpha" operator="arithmetic" k2="-1" k3="1"/>
<feColorMatrix type="matrix" values="0 0 0 0 0 0 0 0 0 0 0 0 0 0 0 0 0 0 0.67 0"/>
<feBlend mode="normal" in2="shape" result="effect2_innerShadow_459_93"/>
</filter>
<filter id="filter1_b_459_93" x="2.08032" y="2.12791" width="82.8391" height="82.7442" filterUnits="userSpaceOnUse" color-interpolation-filters="sRGB">
<feFlood flood-opacity="0" result="BackgroundImageFix"/>
<feGaussianBlur in="BackgroundImage" stdDeviation="5"/>
<feComposite in2="SourceAlpha" operator="in" result="effect1_backgroundBlur_459_93"/>
<feBlend mode="normal" in="SourceGraphic" in2="effect1_backgroundBlur_459_93" result="shape"/>
</filter>
<filter id="filter2_d_459_93" x="0" y="0" width="87" height="87" filterUnits="userSpaceOnUse" color-interpolation-filters="sRGB">
<feFlood flood-opacity="0" result="BackgroundImageFix"/>
<feColorMatrix in="SourceAlpha" type="matrix" values="0 0 0 0 0 0 0 0 0 0 0 0 0 0 0 0 0 0 127 0" result="hardAlpha"/>
<feOffset/>
<feGaussianBlur stdDeviation="4"/>
<feColorMatrix type="matrix" values="0 0 0 0 1 0 0 0 0 0 0 0 0 0 0 0 0 0 1 0"/>
<feBlend mode="normal" in2="BackgroundImageFix" result="effect1_dropShadow_459_93"/>
<feBlend mode="normal" in="SourceGraphic" in2="effect1_dropShadow_459_93" result="shape"/>
</filter>
</defs>
</svg>
