<svg width="119" height="58" viewBox="0 0 119 58" fill="none" xmlns="http://www.w3.org/2000/svg">
<g filter="url(#filter0_b_243_206)">
<path fill-rule="evenodd" clip-rule="evenodd" d="M117.159 11.0396H98.3159L85 0.0396118L2.36113 0.0396283V0.155798C2.29633 0.0789085 2.2307 0.0396283 2.16438 0.0396283C0.969044 0.0396283 3.05176e-05 12.7995 3.05176e-05 28.5396C3.05176e-05 44.2797 0.969044 57.0396 2.16438 57.0396C2.2307 57.0396 2.29633 57.0003 2.36113 56.9234V57.0396H85L98.3159 46.0396H118.016C115.437 40.4059 114 34.1406 114 27.5396C114 21.7099 115.121 16.1419 117.159 11.0396Z" fill="#50A8BB" fill-opacity="0.3"/>
</g>
<path fill-rule="evenodd" clip-rule="evenodd" d="M97.9767 12.0396L84.6877 1.0396L3.00003 1.03961V0.0396118H85L85.0001 1.0396V0L98.3368 11.0396H105V12.0396H99.5449H97.9767Z" fill="#98F3FF" fill-opacity="0.55"/>
<path fill-rule="evenodd" clip-rule="evenodd" d="M97.9767 45.0396L84.6877 56.0396L3.00003 56.0396V57.0396H85L85.0001 56.0396V57.0792L98.3368 46.0396H105V45.0396H99.5449H97.9767Z" fill="#98F3FF" fill-opacity="0.55"/>
<defs>
<filter id="filter0_b_243_206" x="-19" y="-18.9604" width="156.016" height="95" filterUnits="userSpaceOnUse" color-interpolation-filters="sRGB">
<feFlood flood-opacity="0" result="BackgroundImageFix"/>
<feGaussianBlur in="BackgroundImage" stdDeviation="9.5"/>
<feComposite in2="SourceAlpha" operator="in" result="effect1_backgroundBlur_243_206"/>
<feBlend mode="normal" in="SourceGraphic" in2="effect1_backgroundBlur_243_206" result="shape"/>
</filter>
</defs>
</svg>
