<svg width="559" height="578" viewBox="0 0 559 578" fill="none" xmlns="http://www.w3.org/2000/svg">
<path fill-rule="evenodd" clip-rule="evenodd" d="M1.91879 210.04C13.43 213.312 23.8836 219.097 32.6487 226.765C43.7978 182.313 66.6154 142.49 97.6569 110.742C87.1048 105.897 77.7883 98.8236 70.3101 90.1244C38.6194 123.527 14.8256 164.496 1.91879 210.04ZM31.8434 347.93C22.9833 355.476 12.4567 361.124 0.892709 364.244C13.7786 412.161 38.6749 455.156 72.1552 489.803C79.9728 481.319 89.6015 474.53 100.428 470.049C67.1938 437.085 42.9868 395.033 31.8434 347.93ZM280 578C254.82 578 230.392 574.78 207.105 568.728C209.633 560.941 211 552.63 211 544C211 540.749 210.806 537.543 210.429 534.394C232.544 540.651 255.881 544 280 544C302.624 544 324.559 541.054 345.444 535.524C345.15 538.309 345 541.137 345 544C345 552.976 346.478 561.606 349.204 569.661C327.032 575.11 303.853 578 280 578ZM210.814 43.4974C210.937 41.6809 211 39.8478 211 38C211 28.0022 209.166 18.4327 205.816 9.6097C229.49 3.34035 254.355 0 280 0C304.335 0 327.968 3.0078 350.547 8.67193C346.967 17.7532 345 27.6469 345 38C345 39.4729 345.04 40.9366 345.118 42.3899C324.331 36.9157 302.506 34 280 34C256.021 34 232.815 37.3098 210.814 43.4974ZM485.751 491.947C520.072 457.155 545.633 413.7 558.86 365.16C547.268 362.629 536.616 357.586 527.503 350.629C515.94 397.215 491.57 438.743 458.344 471.259C468.925 476.117 478.263 483.215 485.751 491.947ZM487.544 87.8868C520.081 121.458 544.546 162.898 557.807 209.078C546.261 211.763 535.675 216.948 526.649 224.031C515.101 180.07 492.111 140.746 461.055 109.434C471.367 104.219 480.396 96.837 487.544 87.8868Z" fill="#326167"/>
<g filter="url(#filter0_d_412_2)">
<path fill-rule="evenodd" clip-rule="evenodd" d="M15.2253 215.153C15.5302 215.302 15.834 215.454 16.1366 215.607C28.3543 171.979 51.1822 132.783 81.6621 100.979C81.3987 100.772 81.1366 100.564 80.8758 100.354C50.359 132.218 27.492 171.468 15.2253 215.153ZM15.1336 358.892C14.8288 359.042 14.5229 359.189 14.216 359.334C26.4796 405.507 50.5443 446.873 82.9847 480.006C83.2536 479.804 83.5239 479.603 83.7954 479.404C51.3821 446.332 27.3492 405.016 15.1336 358.892ZM278 562C254.679 562 232.041 559.075 210.433 553.571C210.473 553.237 210.511 552.903 210.547 552.568C232.116 558.073 254.716 561 278 561C301.284 561 323.884 558.073 345.453 552.568C345.489 552.903 345.527 553.237 345.567 553.571C323.959 559.075 301.321 562 278 562ZM210.066 25.737C210.015 25.4057 209.962 25.0751 209.907 24.7451C231.673 19.1547 254.49 16.1818 278 16.1818C301.51 16.1818 324.327 19.1547 346.093 24.7451C346.038 25.0751 345.985 25.4057 345.934 25.737C324.22 20.1521 301.457 17.1818 278 17.1818C254.543 17.1818 231.78 20.1521 210.066 25.737ZM540.866 358.892C541.011 358.963 541.156 359.034 541.301 359.103C541.462 359.181 541.623 359.258 541.784 359.334C529.52 405.507 505.456 446.873 473.015 480.006C472.746 479.804 472.476 479.603 472.205 479.404C504.618 446.332 528.651 405.016 540.866 358.892ZM540.775 215.153C528.508 171.468 505.641 132.218 475.124 100.354C474.863 100.564 474.601 100.772 474.338 100.979C504.818 132.783 527.646 171.979 539.863 215.607C540.166 215.454 540.47 215.302 540.775 215.153Z" fill="#FFCB9A"/>
</g>
<g filter="url(#filter1_dii_412_2)">
<path fill-rule="evenodd" clip-rule="evenodd" d="M121.466 113.175C125.232 113.719 129.083 114 133 114C166.816 114 195.731 93.0192 207.439 63.365C230.299 55.9861 254.684 52 280 52C305.316 52 329.701 55.9861 352.561 63.365C364.269 93.0192 393.184 114 427 114C430.917 114 434.768 113.719 438.534 113.175C474.66 145.954 500.582 189.776 510.972 239.311C502.768 251.871 498 266.879 498 283C498 300.078 503.351 315.906 512.469 328.899C503.407 380.761 477.415 426.803 440.397 461.117C436.041 460.382 431.565 460 427 460C392.326 460 362.804 482.06 351.703 512.91C329.091 520.113 304.999 524 280 524C255.001 524 230.909 520.113 208.297 512.91C197.196 482.06 167.674 460 133 460C128.435 460 123.959 460.382 119.603 461.117C82.5854 426.803 56.5926 380.761 47.5312 328.899C56.6486 315.906 62 300.078 62 283C62 266.879 57.2315 251.871 49.0281 239.311C59.4177 189.776 85.3403 145.954 121.466 113.175Z" fill="#263E40"/>
</g>
<g filter="url(#filter2_b_412_2)">
<path fill-rule="evenodd" clip-rule="evenodd" d="M124.768 114.582C127.475 114.858 130.221 115 133 115C165.834 115 194.048 95.2199 206.376 66.9257C229.508 59.1903 254.265 55 280 55C305.735 55 330.492 59.1903 353.624 66.9257C365.952 95.2199 394.166 115 427 115C429.779 115 432.525 114.858 435.232 114.582C472.465 148.126 498.778 193.558 508.19 244.9C501.7 256.461 498 269.799 498 284C498 298.773 502.004 312.611 508.987 324.488C500.186 378.659 472.626 426.536 433.19 461.236C431.147 461.08 429.083 461 427 461C395.088 461 367.54 479.685 354.7 506.712C331.26 514.679 306.134 519 280 519C253.866 519 228.74 514.679 205.3 506.712C192.46 479.685 164.912 461 133 461C130.917 461 128.853 461.08 126.81 461.236C87.3738 426.536 59.8138 378.659 51.013 324.488C57.9956 312.611 62 298.773 62 284C62 269.799 58.2996 256.461 51.8104 244.9C61.2219 193.558 87.5345 148.126 124.768 114.582ZM280 484C388.8 484 477 395.8 477 287C477 178.2 388.8 90 280 90C171.2 90 83 178.2 83 287C83 395.8 171.2 484 280 484Z" fill="#467275" fill-opacity="0.31"/>
</g>
<g filter="url(#filter3_d_412_2)">
<mask id="path-5-inside-1_412_2" fill="white">
<path fill-rule="evenodd" clip-rule="evenodd" d="M121.466 113.175C125.232 113.719 129.083 114 133 114C166.816 114 195.731 93.0192 207.439 63.365C230.299 55.9861 254.684 52 280 52C305.316 52 329.701 55.9861 352.561 63.365C364.269 93.0192 393.184 114 427 114C430.917 114 434.768 113.719 438.534 113.175C474.66 145.954 500.582 189.776 510.972 239.311C502.768 251.871 498 266.879 498 283C498 300.078 503.351 315.906 512.469 328.899C503.407 380.761 477.415 426.803 440.397 461.117C436.041 460.382 431.565 460 427 460C392.326 460 362.804 482.06 351.703 512.91C329.091 520.113 304.999 524 280 524C255.001 524 230.909 520.113 208.297 512.91C197.196 482.06 167.674 460 133 460C128.435 460 123.959 460.382 119.603 461.117C82.5854 426.803 56.5926 380.761 47.5312 328.899C56.6486 315.906 62 300.078 62 283C62 266.879 57.2315 251.871 49.0281 239.311C59.4177 189.776 85.3403 145.954 121.466 113.175Z"/>
</mask>
<path d="M121.466 113.175L122.324 107.236L119.527 106.832L117.434 108.731L121.466 113.175ZM207.439 63.365L205.596 57.655L202.899 58.5256L201.858 61.1616L207.439 63.365ZM352.561 63.365L358.142 61.1616L357.101 58.5256L354.404 57.655L352.561 63.365ZM438.534 113.175L442.566 108.731L440.473 106.832L437.676 107.236L438.534 113.175ZM510.972 239.311L515.995 242.592L517.354 240.512L516.844 238.08L510.972 239.311ZM512.469 328.899L518.379 329.932L518.807 327.486L517.38 325.453L512.469 328.899ZM440.397 461.117L439.399 467.033L442.31 467.524L444.476 465.517L440.397 461.117ZM351.703 512.91L353.524 518.627L356.346 517.728L357.349 514.942L351.703 512.91ZM208.297 512.91L202.651 514.942L203.654 517.728L206.476 518.627L208.297 512.91ZM119.603 461.117L115.524 465.517L117.69 467.524L120.601 467.033L119.603 461.117ZM47.5312 328.899L42.6198 325.453L41.1933 327.486L41.6207 329.932L47.5312 328.899ZM49.0281 239.311L43.1559 238.08L42.6458 240.512L44.0046 242.592L49.0281 239.311ZM133 108C129.371 108 125.807 107.739 122.324 107.236L120.609 119.113C124.658 119.698 128.795 120 133 120V108ZM201.858 61.1616C191.024 88.6023 164.27 108 133 108V120C169.361 120 200.438 97.4361 213.02 65.5683L201.858 61.1616ZM280 46C254.051 46 229.044 50.0863 205.596 57.655L209.282 69.0749C231.554 61.8859 255.317 58 280 58V46ZM354.404 57.655C330.956 50.0863 305.949 46 280 46V58C304.683 58 328.446 61.8859 350.718 69.0749L354.404 57.655ZM427 108C395.73 108 368.976 88.6023 358.142 61.1616L346.98 65.5683C359.562 97.4361 390.639 120 427 120V108ZM437.676 107.236C434.193 107.739 430.629 108 427 108V120C431.204 120 435.342 119.698 439.391 119.113L437.676 107.236ZM516.844 238.08C506.187 187.271 479.601 142.336 442.566 108.731L434.502 117.618C469.718 149.572 494.977 192.281 505.1 240.543L516.844 238.08ZM504 283C504 268.079 508.41 254.206 515.995 242.592L505.948 236.03C497.127 249.536 492 265.679 492 283H504ZM517.38 325.453C508.948 313.437 504 298.805 504 283H492C492 301.351 497.755 318.376 507.557 332.346L517.38 325.453ZM444.476 465.517C482.426 430.339 509.085 383.126 518.379 329.932L506.558 327.867C497.73 378.396 472.403 423.267 436.318 456.716L444.476 465.517ZM427 466C431.229 466 435.371 466.354 439.399 467.033L441.394 455.2C436.71 454.411 431.901 454 427 454V466ZM357.349 514.942C367.62 486.396 394.936 466 427 466V454C389.716 454 357.988 477.723 346.057 510.879L357.349 514.942ZM280 530C305.625 530 330.33 526.015 353.524 518.627L349.882 507.193C327.852 514.211 304.374 518 280 518V530ZM206.476 518.627C229.67 526.015 254.375 530 280 530V518C255.626 518 232.148 514.211 210.118 507.193L206.476 518.627ZM133 466C165.064 466 192.38 486.396 202.651 514.942L213.943 510.879C202.012 477.723 170.284 454 133 454V466ZM120.601 467.033C124.629 466.354 128.771 466 133 466V454C128.099 454 123.29 454.411 118.606 455.2L120.601 467.033ZM41.6207 329.932C50.9149 383.126 77.5741 430.339 115.524 465.517L123.682 456.716C87.5966 423.267 62.2703 378.396 53.4417 327.867L41.6207 329.932ZM52.4426 332.346C62.2454 318.376 68 301.351 68 283H56C56 298.805 51.0518 313.437 42.6198 325.453L52.4426 332.346ZM68 283C68 265.679 62.8728 249.536 54.0516 236.03L44.0046 242.592C51.5903 254.206 56 268.079 56 283H68ZM117.434 108.731C80.3988 142.336 53.8125 187.271 43.1559 238.08L54.9003 240.543C65.023 192.281 90.2819 149.572 125.498 117.618L117.434 108.731Z" fill="#93FFFF" mask="url(#path-5-inside-1_412_2)"/>
</g>
<g filter="url(#filter4_d_412_2)">
<path fill-rule="evenodd" clip-rule="evenodd" d="M49.0281 239.311C50.6965 241.866 52.2228 244.521 53.5958 247.267C63.0554 194.335 90.6227 147.678 129.661 113.932C126.891 113.818 124.157 113.563 121.466 113.175C85.3403 145.954 59.4177 189.776 49.0281 239.311ZM52.3637 321.097C50.8998 323.795 49.2852 326.4 47.5312 328.899C56.5926 380.761 82.5854 426.803 119.603 461.117C122.198 460.679 124.836 460.367 127.509 460.185C87.7642 424.96 60.3027 376.185 52.3637 321.097ZM280 524C255.001 524 230.909 520.113 208.297 512.91C207.395 510.405 206.373 507.958 205.235 505.575C228.675 513.628 253.827 518 280 518C306.173 518 331.325 513.628 354.765 505.575C353.628 507.958 352.605 510.405 351.703 512.91C329.091 520.113 304.999 524 280 524ZM204.03 70.8424C205.289 68.4198 206.428 65.9247 207.439 63.365C230.299 55.9861 254.684 52 280 52C305.316 52 329.701 55.9861 352.561 63.365C353.572 65.9247 354.711 68.4198 355.97 70.8424C332.187 62.523 306.622 58 280 58C253.378 58 227.813 62.523 204.03 70.8424ZM440.397 461.117C477.415 426.803 503.407 380.761 512.469 328.899C510.715 326.4 509.1 323.795 507.636 321.097C499.697 376.185 472.236 424.96 432.491 460.185C435.164 460.367 437.802 460.679 440.397 461.117ZM438.534 113.175C474.66 145.954 500.582 189.776 510.972 239.311C509.304 241.866 507.777 244.521 506.404 247.267C496.945 194.335 469.377 147.678 430.339 113.932C433.109 113.818 435.843 113.563 438.534 113.175Z" fill="#93FFFF"/>
</g>
<defs>
<filter id="filter0_d_412_2" x="7.21597" y="9.18182" width="541.568" height="559.818" filterUnits="userSpaceOnUse" color-interpolation-filters="sRGB">
<feFlood flood-opacity="0" result="BackgroundImageFix"/>
<feColorMatrix in="SourceAlpha" type="matrix" values="0 0 0 0 0 0 0 0 0 0 0 0 0 0 0 0 0 0 127 0" result="hardAlpha"/>
<feOffset/>
<feGaussianBlur stdDeviation="3.5"/>
<feColorMatrix type="matrix" values="0 0 0 0 1 0 0 0 0 0.960784 0 0 0 0 0.862745 0 0 0 1 0"/>
<feBlend mode="normal" in2="BackgroundImageFix" result="effect1_dropShadow_412_2"/>
<feBlend mode="normal" in="SourceGraphic" in2="effect1_dropShadow_412_2" result="shape"/>
</filter>
<filter id="filter1_dii_412_2" x="30.5312" y="35" width="498.938" height="506" filterUnits="userSpaceOnUse" color-interpolation-filters="sRGB">
<feFlood flood-opacity="0" result="BackgroundImageFix"/>
<feColorMatrix in="SourceAlpha" type="matrix" values="0 0 0 0 0 0 0 0 0 0 0 0 0 0 0 0 0 0 127 0" result="hardAlpha"/>
<feOffset/>
<feGaussianBlur stdDeviation="8.5"/>
<feColorMatrix type="matrix" values="0 0 0 0 0.575 0 0 0 0 1 0 0 0 0 1 0 0 0 0.5 0"/>
<feBlend mode="normal" in2="BackgroundImageFix" result="effect1_dropShadow_412_2"/>
<feBlend mode="normal" in="SourceGraphic" in2="effect1_dropShadow_412_2" result="shape"/>
<feColorMatrix in="SourceAlpha" type="matrix" values="0 0 0 0 0 0 0 0 0 0 0 0 0 0 0 0 0 0 127 0" result="hardAlpha"/>
<feOffset/>
<feGaussianBlur stdDeviation="45"/>
<feComposite in2="hardAlpha" operator="arithmetic" k2="-1" k3="1"/>
<feColorMatrix type="matrix" values="0 0 0 0 0 0 0 0 0 0 0 0 0 0 0 0 0 0 1 0"/>
<feBlend mode="normal" in2="shape" result="effect2_innerShadow_412_2"/>
<feColorMatrix in="SourceAlpha" type="matrix" values="0 0 0 0 0 0 0 0 0 0 0 0 0 0 0 0 0 0 127 0" result="hardAlpha"/>
<feOffset/>
<feGaussianBlur stdDeviation="13.5"/>
<feComposite in2="hardAlpha" operator="arithmetic" k2="-1" k3="1"/>
<feColorMatrix type="matrix" values="0 0 0 0 0 0 0 0 0 0 0 0 0 0 0 0 0 0 0.84 0"/>
<feBlend mode="normal" in2="effect2_innerShadow_412_2" result="effect3_innerShadow_412_2"/>
</filter>
<filter id="filter2_b_412_2" x="43.013" y="47" width="473.974" height="480" filterUnits="userSpaceOnUse" color-interpolation-filters="sRGB">
<feFlood flood-opacity="0" result="BackgroundImageFix"/>
<feGaussianBlur in="BackgroundImage" stdDeviation="4"/>
<feComposite in2="SourceAlpha" operator="in" result="effect1_backgroundBlur_412_2"/>
<feBlend mode="normal" in="SourceGraphic" in2="effect1_backgroundBlur_412_2" result="shape"/>
</filter>
<filter id="filter3_d_412_2" x="30.5312" y="35" width="498.938" height="506" filterUnits="userSpaceOnUse" color-interpolation-filters="sRGB">
<feFlood flood-opacity="0" result="BackgroundImageFix"/>
<feColorMatrix in="SourceAlpha" type="matrix" values="0 0 0 0 0 0 0 0 0 0 0 0 0 0 0 0 0 0 127 0" result="hardAlpha"/>
<feOffset/>
<feGaussianBlur stdDeviation="8.5"/>
<feColorMatrix type="matrix" values="0 0 0 0 0.575 0 0 0 0 1 0 0 0 0 1 0 0 0 0.5 0"/>
<feBlend mode="normal" in2="BackgroundImageFix" result="effect1_dropShadow_412_2"/>
<feBlend mode="normal" in="SourceGraphic" in2="effect1_dropShadow_412_2" result="shape"/>
</filter>
<filter id="filter4_d_412_2" x="30.5312" y="35" width="498.938" height="506" filterUnits="userSpaceOnUse" color-interpolation-filters="sRGB">
<feFlood flood-opacity="0" result="BackgroundImageFix"/>
<feColorMatrix in="SourceAlpha" type="matrix" values="0 0 0 0 0 0 0 0 0 0 0 0 0 0 0 0 0 0 127 0" result="hardAlpha"/>
<feOffset/>
<feGaussianBlur stdDeviation="8.5"/>
<feColorMatrix type="matrix" values="0 0 0 0 0.575 0 0 0 0 1 0 0 0 0 1 0 0 0 0.5 0"/>
<feBlend mode="normal" in2="BackgroundImageFix" result="effect1_dropShadow_412_2"/>
<feBlend mode="normal" in="SourceGraphic" in2="effect1_dropShadow_412_2" result="shape"/>
</filter>
</defs>
</svg>
